Coordinates
version=1
nRows=17
nColumns=36
inDegrees=yes

Units are S.I. units (second, meters, Newtons, ...)
If the header above contains a line with 'inDegrees', this indicates whether rotational values are in degrees (yes) or radians (no).

endheader
time	pelvis_tilt	pelvis_list	pelvis_rotation	pelvis_tx	pelvis_ty	pelvis_tz	hip_flexion_r	hip_adduction_r	hip_rotation_r	knee_angle_r	knee_angle_r_beta	ankle_angle_r	subtalar_angle_r	mtp_angle_r	hip_flexion_l	hip_adduction_l	hip_rotation_l	knee_angle_l	knee_angle_l_beta	ankle_angle_l	subtalar_angle_l	mtp_angle_l	lumbar_extension	lumbar_bending	lumbar_rotation	arm_flex_r	arm_add_r	arm_rot_r	elbow_flex_r	pro_sup_r	arm_flex_l	arm_add_l	arm_rot_l	elbow_flex_l	pro_sup_l
      0.00000000	      0.96287643	      0.42373522	      1.54612391	     -0.89033215	      1.24287609	     -0.06640540	     -3.00299245	     -1.17371976	      1.26915976	      4.21382508	      0.07354512	      3.69878377	     -6.69309217	     -6.46548833	     -3.51158921	     -1.07558257	      1.07822133	      2.28394307	      0.03986233	      5.56431439	      0.09976589	     -6.46548833	    -10.92535874	      1.80991750	     -2.31165563	      8.86764043	    -12.03653926	     22.70748899	     31.48898139	     75.29722537	      5.18966307	    -11.15514144	     18.53322187	     38.92538145	     72.25272481
      0.00416670	      0.04906269	      0.44674401	      1.91364844	     -0.89007391	      1.24060864	     -0.06703956	     -2.64311125	     -0.96889823	      1.84765835	      3.11974182	      0.05444977	      4.85563356	     -4.28541104	     -6.69349430	     -2.79192350	     -0.72449363	      2.53286584	      1.81952492	      0.03175670	      4.96023595	      0.95987632	     -6.69349430	     -9.01681269	      1.80884559	     -2.34575962	      8.31612377	    -12.30442346	     22.66114699	     32.04679844	     73.73731133	      5.35307101	    -11.01222155	     18.55344226	     39.11958070	     71.18626804
      0.00833330	     -0.70934632	      0.63223748	      1.79996455	     -0.88864814	      1.24070439	     -0.06487438	     -2.26048891	     -0.97874778	      1.59657907	      2.30178779	      0.04017378	      4.98343421	     -3.54347444	     -7.05814860	     -2.08714605	     -0.55417545	      2.56266567	      1.76606306	      0.03082362	      4.64496206	      1.03654090	     -7.05814860	     -8.18207697	      1.21815082	     -1.83216753	      7.73394112	    -12.11948350	     21.22010312	     32.40805867	     77.37026374	      5.91592176	    -11.44066954	     19.53843987	     38.60488555	     75.57310955
      0.01250000	     -0.71315182	      0.78697908	      1.81130174	     -0.89010026	      1.23953890	     -0.06583963	     -2.38447509	     -1.13550587	      1.73501262	      2.00493853	      0.03499278	      5.07779078	     -3.35584238	     -7.14470885	     -2.27721882	     -0.35100131	      2.94057697	      1.36287428	      0.02378664	      4.39201901	      0.43547627	     -7.14470885	     -8.26313141	      0.89290072	     -1.69477824	      7.59311267	    -12.09472937	     20.76505175	     32.75908436	     75.41063375	      5.99257219	    -11.51873217	     19.25143775	     38.48597960	     73.85570803
      0.01666670	     -0.35270343	      0.84706776	      1.69447190	     -0.88939942	      1.24106580	     -0.06528260	     -2.81623771	     -1.21947874	      1.67692273	      1.86309163	      0.03251708	      5.40995736	     -3.02534366	     -7.21581127	     -2.83751005	     -0.27734246	      3.30156662	      1.04979953	      0.01832246	      4.58968339	      0.11304048	     -7.21581127	     -8.90880044	      0.83713321	     -1.51249728	      7.47299985	    -11.96024717	     20.09289544	     33.21975210	     73.54865590	      6.09322260	    -11.41018240	     19.04184584	     38.70961194	     72.29665788
      0.02083330	     -0.27878357	      0.93600152	      1.71541102	     -0.88951541	      1.24439428	     -0.06462942	     -3.02720146	     -1.28823357	      1.65976623	      1.79891103	      0.03139692	      5.31866748	     -3.04417925	     -7.38659155	     -2.95711870	     -0.19688481	      3.55820569	      0.89637517	      0.01564470	      4.46874010	     -0.37394598	     -7.38659155	     -9.04872451	      0.67350818	     -0.99775123	      6.90201631	    -11.49927723	     16.59368598	     33.53139419	     80.13560872	      6.46204727	    -11.14850210	     18.36884273	     38.14778126	     79.12396469
      0.02500000	     -0.19524086	      1.06055257	      1.80450499	     -0.88979281	      1.24458423	     -0.06442338	     -3.18840843	     -1.43771314	      1.23428041	      1.79902828	      0.03139897	      5.31907074	     -2.81168771	     -7.41930477	     -3.05386336	     -0.06544301	      3.86165196	      0.84069030	      0.01467281	      4.37932475	     -0.70786780	     -7.41930477	     -9.18463267	      0.54590936	     -0.93165739	      6.81676716	    -11.27071794	     16.15547741	     33.60441719	     77.18479889	      6.55894231	    -10.87177793	     17.79085258	     37.98408927	     76.32192003
      0.02916670	      0.06256955	      1.11075164	      1.76675115	     -0.88923803	      1.24476424	     -0.06420176	     -3.57255142	     -1.45745006	      1.34002923	      1.69694126	      0.02961721	      4.92736155	     -3.30788402	     -7.46416993	     -3.36548158	     -0.05938347	      3.86834518	      0.78616953	      0.01372125	      4.26959004	     -0.73976351	     -7.46416993	     -9.57036818	      0.46173818	     -0.81456259	      6.76420605	    -10.95430783	     14.78885348	     33.75488612	     80.63222362	      6.43228992	    -10.67068038	     16.07014867	     38.26930562	     80.34022370
      0.03333330	      0.17034157	      1.17955407	      1.73051951	     -0.89183248	      1.24409273	     -0.06534689	     -3.64657249	     -1.59965904	      1.16877279	      1.62333927	      0.02833262	      4.71979818	     -3.56455681	     -7.47508496	     -3.43969124	      0.04363928	      4.16841300	      0.76735481	      0.01339287	      4.06366164	     -1.11676214	     -7.47508496	     -9.79441285	      0.41464533	     -0.73314347	      6.79485363	    -10.88471661	     14.94114610	     33.91441440	     78.02143585	      6.58157690	    -10.61423267	     16.08465834	     38.52194209	     77.87326783
      0.03750000	      0.24020473	      1.18331051	      1.75085156	     -0.89065996	      1.23975114	     -0.06528153	     -3.69111726	     -1.62836942	      1.14203264	      1.52113528	      0.02654882	      4.74149504	     -3.56987051	     -7.47833317	     -3.50424566	      0.05124681	      4.34680470	      0.77478258	      0.01352251	      4.07094940	     -1.30885322	     -7.47833317	     -9.84314983	      0.41771847	     -0.79932405	      6.80096073	    -10.77439220	     14.69643192	     33.90878876	     78.99602877	      6.56304033	    -10.53049943	     15.43381637	     38.66600851	     79.30073567
      0.04166670	      0.28691814	      1.16464831	      1.71135719	     -0.89086376	      1.23803689	     -0.06494506	     -3.69549161	     -1.62615025	      1.34844632	      1.48636248	      0.02594192	      4.68513947	     -3.80535368	     -7.49428620	     -3.55161212	      0.03795876	      4.43900806	      0.78677831	      0.01373187	      4.24180381	     -1.34529111	     -7.49428620	     -9.91533629	      0.43932373	     -0.79220004	      6.72605361	    -10.69455934	     14.16669646	     34.17195358	     80.28051601	      6.45999169	    -10.46436578	     14.61810274	     39.04934313	     81.68200546
      0.04583330	      0.36124710	      1.13598615	      1.77411452	     -0.89216881	      1.23891319	     -0.06473425	     -3.72323631	     -1.58797406	      1.32075971	      1.41987807	      0.02478155	      4.75932717	     -3.71179802	     -7.49742046	     -3.59471952	     -0.00598539	      4.79925189	      0.79917995	      0.01394832	      4.22790845	     -1.81039028	     -7.49742046	    -10.02833186	      0.46809473	     -0.80369683	      6.70777059	    -10.79816847	     14.89445739	     34.50773389	     75.44612958	      6.53085674	    -10.64894585	     15.46356279	     39.48139223	     76.54758974
      0.05000000	      0.32326814	      1.12856596	      1.83428195	     -0.89030348	      1.23952569	     -0.06506541	     -3.72071242	     -1.54585720	      1.49597371	      1.42480996	      0.02486763	      4.65725768	     -4.00342943	     -7.49917115	     -3.55603492	     -0.04739620	      4.89600163	      0.84215432	      0.01469837	      4.15653268	     -2.07007667	     -7.49917115	     -9.93551492	      0.44454504	     -0.82836440	      6.68936938	    -10.74680303	     14.49837004	     34.43503006	     79.99566630	      6.46165026	    -10.62589801	     14.85003152	     39.51123352	     81.71075992
      0.05416670	      0.27520831	      1.14784588	      1.84825961	     -0.89166755	      1.24000261	     -0.06485111	     -3.66488470	     -1.54508160	      1.47372797	      1.36383188	      0.02380336	      4.83420278	     -3.71548026	     -7.49968451	     -3.46740113	     -0.02544810	      4.89934197	      0.86467095	      0.01509136	      4.16187165	     -2.04902171	     -7.49968451	     -9.92451805	      0.45399646	     -0.83392768	      6.60698221	    -10.75180361	     14.44338480	     34.72984276	     79.35922882	      6.54443768	    -10.70255745	     15.19118594	     39.53629554	     81.18675394
      0.05833330	      0.39147631	      1.14065156	      1.87128361	     -0.89149360	      1.23955676	     -0.06565384	     -3.82663642	     -1.52116323	      1.63700915	      1.29087433	      0.02253001	      4.78550209	     -3.78350877	     -7.49986047	     -3.58204839	     -0.03722499	      5.00264858	      0.86315292	      0.01506486	      4.08958792	     -2.20607681	     -7.49986047	    -10.08510137	      0.47690933	     -0.82365712	      6.57421755	    -10.86936290	     15.13029927	     35.05320791	     74.56527896	      6.68166516	    -10.86101667	     16.27774272	     39.73446469	     75.95588086
      0.06250000	      0.21294779	      1.13339922	      1.86357161	     -0.89153702	      1.23744872	     -0.06527888	     -3.61921879	     -1.50769690	      1.74113440	      1.26878416	      0.02214446	      4.84556639	     -3.80326490	     -7.49995251	     -3.38343275	     -0.00504464	      5.02085485	      0.85639226	      0.01494686	      4.08411361	     -2.36115523	     -7.49995251	     -9.86568153	      0.49562720	     -0.81185226	      6.44369596	    -10.79428509	     14.12153234	     35.07642815	     79.57379264	      6.60011371	    -10.70797032	     15.37628454	     39.65411201	     81.45577516
      0.06666670	      0.15193336	      1.12274283	      1.84392874	     -0.89042458	      1.23910931	     -0.06554802	     -3.58822106	     -1.49563965	      1.91497563	      1.19713876	      0.02089401	      4.82364021	     -3.80794633	     -7.49998622	     -3.34487455	     -0.00612354	      4.99981821	      0.81914318	      0.01429675	      4.08574955	     -2.36187539	     -7.49998622	     -9.75262566	      0.53434138	     -0.77771451	      6.35270072	    -10.85248180	     14.09064781	     35.17630960	     79.42801526	      6.60955672	    -10.69601563	     15.60562727	     39.58203151	     81.22852469
